<svg xmlns="http://www.w3.org/2000/svg" xmlns:v="https://svgstorm.com"
viewBox = "0 0 578 661"
width="578"
height="661">
<g fill="None" fill-opacity="0.0" stroke="#000000" stroke-opacity="0.00" stroke-width="0.3"><path d="
M 0.00 661.00 
L 578.00 661.00
L 578.00 0.00
L 0.00 0.00
L 0.00 661.00
M 38.00 29.00 
C 39.55 27.24 41.63 29.45 40.00 31.00
C 43.21 33.63 45.85 40.79 51.00 40.00
C 50.37 43.67 56.14 49.61 60.00 49.00
C 58.43 55.36 68.11 56.58 69.32 60.68 C 74.36 63.32 74.46 70.69 82.00 71.00
C 81.47 74.50 87.09 80.37 91.00 80.00
C 92.58 88.17 104.92 95.22 110.77 103.23 C 117.48 111.38 130.04 116.98 131.00 128.00
C 89.67 128.00 48.33 128.00 7.00 128.00
C 7.00 87.00 7.00 46.00 7.00 5.00
C 22.91 3.21 28.03 23.98 38.00 29.00
M 467.00 102.00 
C 466.52 99.32 468.77 101.39 470.00 100.00
C 480.87 88.22 488.68 80.22 498.00 71.00
C 497.75 68.60 500.66 69.98 502.00 68.00
C 509.28 57.61 520.27 51.14 528.11 40.11 C 534.63 38.70 536.33 27.40 543.00 28.00
C 549.94 19.23 556.99 3.27 571.00 5.00
C 571.00 46.00 571.00 87.00 571.00 128.00
C 529.67 128.00 488.33 128.00 447.00 128.00
C 447.06 116.45 461.43 111.23 467.00 102.00
M 283.00 510.00 
C 264.40 511.66 242.53 511.67 224.00 510.00
C 188.53 474.01 152.14 437.99 117.00 400.00
C 80.50 399.33 42.68 401.33 7.00 399.00
C 7.00 312.00 7.00 225.00 7.00 138.00
C 99.00 138.00 191.00 138.00 283.00 138.00
C 283.00 262.00 283.00 386.00 283.00 510.00
M 571.00 399.00 
C 535.24 401.33 497.52 399.33 461.00 400.00
C 452.98 409.03 444.59 419.01 435.00 427.00
C 436.76 428.55 434.55 430.63 433.00 429.00
C 431.58 431.76 428.35 433.27 427.00 436.00
C 427.32 437.91 425.53 439.46 424.00 438.00
C 422.58 440.76 419.35 442.27 418.00 445.00
C 418.32 446.91 416.53 448.46 415.00 447.00
C 395.83 468.91 374.20 488.46 354.00 510.00
C 335.40 511.66 313.53 511.67 295.00 510.00
C 295.00 386.00 295.00 262.00 295.00 138.00
C 387.00 138.00 479.00 138.00 571.00 138.00
C 571.00 225.00 571.00 312.00 571.00 399.00
M 127.00 431.00 
C 128.55 429.24 130.63 431.45 129.00 433.00
C 131.62 434.89 134.24 437.35 136.00 440.00
C 137.55 438.24 139.63 440.45 138.00 442.00
C 150.16 452.72 161.14 464.93 171.00 476.00
C 172.55 474.24 174.63 476.45 173.00 478.00
C 185.89 489.84 197.87 503.81 211.00 515.00
C 212.91 514.68 214.46 516.47 213.00 518.00
C 220.78 525.41 210.70 543.91 220.23 551.77 C 234.44 566.94 249.78 581.09 264.00 596.00
C 265.55 594.24 267.63 596.45 266.00 598.00
C 270.54 602.45 275.53 607.70 283.00 607.00
C 283.00 622.67 283.00 638.33 283.00 654.00
C 252.27 632.59 224.87 607.18 194.70 585.30 C 136.26 539.27 77.81 495.30 20.75 450.25 C 5.34 444.14 5.94 426.34 7.00 411.00
C 38.00 411.00 69.00 411.00 100.00 411.00 C 112.34 409.62 118.62 424.07 127.00 431.00
M 357.00 553.00 
C 355.18 551.28 357.42 550.74 359.00 551.00
C 366.60 540.06 355.42 520.58 370.25 512.25 C 405.03 477.26 437.68 444.34 469.00 411.00
C 503.00 411.00 537.00 411.00 571.00 411.00
C 571.85 426.38 573.09 443.55 557.25 450.25 C 498.64 495.70 437.86 542.73 377.25 589.25 C 366.71 597.03 358.98 606.46 347.00 611.00
C 346.34 616.51 336.36 620.76 331.30 625.30 C 318.42 636.08 308.18 646.04 295.00 654.00
C 295.00 638.33 295.00 622.67 295.00 607.00
C 307.62 607.53 316.01 591.31 326.75 582.75 C 336.89 572.93 346.54 562.30 357.00 553.00 Z"/>
</g>
<g fill="None" fill-opacity="0.0" stroke="#FFFFFF" stroke-opacity="0.97" stroke-width="0.3"><path d="
M 40.00 31.00 
C 39.71 32.84 35.92 29.31 38.00 29.00
C 28.03 23.98 22.91 3.21 7.00 5.00
C 7.00 46.00 7.00 87.00 7.00 128.00
C 48.33 128.00 89.67 128.00 131.00 128.00
C 130.04 116.98 117.48 111.38 110.77 103.23 C 104.92 95.22 92.58 88.17 91.00 80.00
C 87.09 80.37 81.47 74.50 82.00 71.00
C 74.46 70.69 74.36 63.32 69.32 60.68 C 68.11 56.58 58.43 55.36 60.00 49.00
C 56.14 49.61 50.37 43.67 51.00 40.00
C 45.85 40.79 43.21 33.63 40.00 31.00 Z"/>
</g>
<g fill="None" fill-opacity="0.0" stroke="#FFFFFF" stroke-opacity="0.97" stroke-width="0.3"><path d="
M 502.00 68.00 
C 502.11 69.95 499.88 72.77 498.00 71.00
C 488.68 80.22 480.87 88.22 470.00 100.00
C 471.64 100.95 468.26 103.87 467.00 102.00
C 461.43 111.23 447.06 116.45 447.00 128.00
C 488.33 128.00 529.67 128.00 571.00 128.00
C 571.00 87.00 571.00 46.00 571.00 5.00
C 556.99 3.27 549.94 19.23 543.00 28.00
C 536.33 27.40 534.63 38.70 528.11 40.11 C 520.27 51.14 509.28 57.61 502.00 68.00 Z"/>
</g>
<g fill="None" fill-opacity="0.0" stroke="#D5D5D5" stroke-opacity="0.27" stroke-width="0.3"><path d="
M 38.00 29.00 
C 35.92 29.31 39.71 32.84 40.00 31.00
C 41.63 29.45 39.55 27.24 38.00 29.00 Z"/>
</g>
<g fill="None" fill-opacity="0.0" stroke="#D5D5D5" stroke-opacity="0.31" stroke-width="0.3"><path d="
M 498.00 71.00 
C 499.88 72.77 502.11 69.95 502.00 68.00
C 500.66 69.98 497.75 68.60 498.00 71.00 Z"/>
</g>
<g fill="None" fill-opacity="0.0" stroke="#CFCFCF" stroke-opacity="0.35" stroke-width="0.3"><path d="
M 467.00 102.00 
C 468.26 103.87 471.64 100.95 470.00 100.00
C 468.77 101.39 466.52 99.32 467.00 102.00 Z"/>
</g>
<g fill="None" fill-opacity="0.0" stroke="#FFFFFF" stroke-opacity="0.99" stroke-width="0.3"><path d="
M 7.00 399.00 
C 34.83 396.69 63.75 398.65 92.00 398.00 C 99.50 399.18 113.40 395.54 117.00 400.00
C 152.14 437.99 188.53 474.01 224.00 510.00
C 243.09 508.37 263.94 508.31 283.00 510.00
C 283.00 386.00 283.00 262.00 283.00 138.00
C 191.00 138.00 99.00 138.00 7.00 138.00
C 7.00 225.00 7.00 312.00 7.00 399.00
M 204.00 281.00 
C 204.00 322.67 204.00 364.33 204.00 406.00
C 180.64 390.87 160.59 368.04 140.70 348.30 C 134.21 341.71 123.58 334.52 122.00 327.00
C 114.34 326.72 110.50 315.20 103.92 312.08 C 92.85 305.91 98.21 291.79 97.00 281.00
C 132.67 281.00 168.33 281.00 204.00 281.00 Z"/>
</g>
<g fill="None" fill-opacity="0.0" stroke="#FFFFFF" stroke-opacity="0.99" stroke-width="0.3"><path d="
M 295.00 510.00 
C 314.10 508.34 334.90 508.34 354.00 510.00
C 374.20 488.46 395.83 468.91 415.00 447.00
C 413.36 446.05 416.74 443.13 418.00 445.00
C 419.35 442.27 422.58 440.76 424.00 438.00
C 422.36 437.05 425.74 434.13 427.00 436.00
C 428.35 433.27 431.58 431.76 433.00 429.00
C 431.16 428.71 434.69 424.92 435.00 427.00
C 444.59 419.01 452.98 409.03 461.00 400.00
C 469.75 395.38 484.83 399.30 496.00 398.00 C 520.92 398.65 546.50 396.69 571.00 399.00
C 571.00 312.00 571.00 225.00 571.00 138.00
C 479.00 138.00 387.00 138.00 295.00 138.00
C 295.00 262.00 295.00 386.00 295.00 510.00
M 448.00 338.00 
C 449.64 338.95 446.26 341.87 445.00 340.00
C 440.25 344.61 434.73 353.73 429.00 354.00
C 428.14 360.47 420.07 363.50 417.00 369.00
C 418.64 369.95 415.26 372.87 414.00 371.00
C 400.09 383.48 388.82 398.65 373.00 406.00
C 373.00 364.33 373.00 322.67 373.00 281.00
C 409.00 281.00 445.00 281.00 481.00 281.00
C 481.00 289.33 481.00 297.67 481.00 306.00
C 475.71 306.55 474.02 316.03 469.00 314.00
C 464.02 325.14 453.88 328.27 448.00 338.00 Z"/>
</g>
<g fill="None" fill-opacity="0.0" stroke="#000000" stroke-opacity="0.00" stroke-width="0.3"><path d="
M 204.00 281.00 
C 168.33 281.00 132.67 281.00 97.00 281.00
C 98.21 291.79 92.85 305.91 103.92 312.08 C 110.50 315.20 114.34 326.72 122.00 327.00
C 123.58 334.52 134.21 341.71 140.70 348.30 C 160.59 368.04 180.64 390.87 204.00 406.00
C 204.00 364.33 204.00 322.67 204.00 281.00 Z"/>
</g>
<g fill="None" fill-opacity="0.0" stroke="#000000" stroke-opacity="0.00" stroke-width="0.3"><path d="
M 414.00 371.00 
C 413.52 368.32 415.77 370.39 417.00 369.00
C 420.07 363.50 428.14 360.47 429.00 354.00
C 434.73 353.73 440.25 344.61 445.00 340.00
C 444.52 337.32 446.77 339.39 448.00 338.00
C 453.88 328.27 464.02 325.14 469.00 314.00
C 474.02 316.03 475.71 306.55 481.00 306.00
C 481.00 297.67 481.00 289.33 481.00 281.00
C 445.00 281.00 409.00 281.00 373.00 281.00
C 373.00 322.67 373.00 364.33 373.00 406.00
C 388.82 398.65 400.09 383.48 414.00 371.00 Z"/>
</g>
<g fill="None" fill-opacity="0.0" stroke="#CFCFCF" stroke-opacity="0.34" stroke-width="0.3"><path d="
M 445.00 340.00 
C 446.26 341.87 449.64 338.95 448.00 338.00
C 446.77 339.39 444.52 337.32 445.00 340.00 Z"/>
</g>
<g fill="None" fill-opacity="0.0" stroke="#CFCFCF" stroke-opacity="0.35" stroke-width="0.3"><path d="
M 414.00 371.00 
C 415.26 372.87 418.64 369.95 417.00 369.00
C 415.77 370.39 413.52 368.32 414.00 371.00 Z"/>
</g>
<g fill="None" fill-opacity="0.0" stroke="#FFFFFF" stroke-opacity="0.49" stroke-width="0.3"><path d="
M 7.00 399.00 
C 42.68 401.33 80.50 399.33 117.00 400.00
C 113.40 395.54 99.50 399.18 92.00 398.00 C 63.75 398.65 34.83 396.69 7.00 399.00 Z"/>
</g>
<g fill="None" fill-opacity="0.0" stroke="#FFFFFF" stroke-opacity="0.49" stroke-width="0.3"><path d="
M 461.00 400.00 
C 497.52 399.33 535.24 401.33 571.00 399.00
C 546.50 396.69 520.92 398.65 496.00 398.00 C 484.83 399.30 469.75 395.38 461.00 400.00 Z"/>
</g>
<g fill="None" fill-opacity="0.0" stroke="#FFFFFF" stroke-opacity="0.97" stroke-width="0.3"><path d="
M 266.00 598.00 
C 265.71 599.84 261.92 596.31 264.00 596.00
C 249.78 581.09 234.44 566.94 220.23 551.77 C 210.70 543.91 220.78 525.41 213.00 518.00
C 212.05 519.64 209.13 516.26 211.00 515.00
C 197.87 503.81 185.89 489.84 173.00 478.00
C 172.71 479.84 168.92 476.31 171.00 476.00
C 161.14 464.93 150.16 452.72 138.00 442.00
C 137.71 443.84 133.92 440.31 136.00 440.00
C 134.24 437.35 131.62 434.89 129.00 433.00
C 128.71 434.84 124.92 431.31 127.00 431.00
C 118.62 424.07 112.34 409.62 100.00 411.00 C 69.00 411.00 38.00 411.00 7.00 411.00
C 5.94 426.34 5.34 444.14 20.75 450.25 C 77.81 495.30 136.26 539.27 194.70 585.30 C 224.87 607.18 252.27 632.59 283.00 654.00
C 283.00 638.33 283.00 622.67 283.00 607.00
C 275.53 607.70 270.54 602.45 266.00 598.00 Z"/>
</g>
<g fill="None" fill-opacity="0.0" stroke="#FFFFFF" stroke-opacity="0.97" stroke-width="0.3"><path d="
M 359.00 551.00 
C 360.84 551.29 357.31 555.08 357.00 553.00
C 346.54 562.30 336.89 572.93 326.75 582.75 C 316.01 591.31 307.62 607.53 295.00 607.00
C 295.00 622.67 295.00 638.33 295.00 654.00
C 308.18 646.04 318.42 636.08 331.30 625.30 C 336.36 620.76 346.34 616.51 347.00 611.00
C 358.98 606.46 366.71 597.03 377.25 589.25 C 437.86 542.73 498.64 495.70 557.25 450.25 C 573.09 443.55 571.85 426.38 571.00 411.00
C 537.00 411.00 503.00 411.00 469.00 411.00
C 437.68 444.34 405.03 477.26 370.25 512.25 C 355.42 520.58 366.60 540.06 359.00 551.00 Z"/>
</g>
<g fill="None" fill-opacity="0.0" stroke="#D5D5D5" stroke-opacity="0.35" stroke-width="0.3"><path d="
M 433.00 429.00 
C 434.55 430.63 436.76 428.55 435.00 427.00
C 434.69 424.92 431.16 428.71 433.00 429.00 Z"/>
</g>
<g fill="None" fill-opacity="0.0" stroke="#D5D5D5" stroke-opacity="0.36" stroke-width="0.3"><path d="
M 127.00 431.00 
C 124.92 431.31 128.71 434.84 129.00 433.00
C 130.63 431.45 128.55 429.24 127.00 431.00 Z"/>
</g>
<g fill="None" fill-opacity="0.0" stroke="#B6B6B6" stroke-opacity="0.31" stroke-width="0.3"><path d="
M 424.00 438.00 
C 425.53 439.46 427.32 437.91 427.00 436.00
C 425.74 434.13 422.36 437.05 424.00 438.00 Z"/>
</g>
<g fill="None" fill-opacity="0.0" stroke="#D5D5D5" stroke-opacity="0.37" stroke-width="0.3"><path d="
M 136.00 440.00 
C 133.92 440.31 137.71 443.84 138.00 442.00
C 139.63 440.45 137.55 438.24 136.00 440.00 Z"/>
</g>
<g fill="None" fill-opacity="0.0" stroke="#B6B6B6" stroke-opacity="0.31" stroke-width="0.3"><path d="
M 415.00 447.00 
C 416.53 448.46 418.32 446.91 418.00 445.00
C 416.74 443.13 413.36 446.05 415.00 447.00 Z"/>
</g>
<g fill="None" fill-opacity="0.0" stroke="#D5D5D5" stroke-opacity="0.27" stroke-width="0.3"><path d="
M 171.00 476.00 
C 168.92 476.31 172.71 479.84 173.00 478.00
C 174.63 476.45 172.55 474.24 171.00 476.00 Z"/>
</g>
<g fill="None" fill-opacity="0.0" stroke="#FFFFFF" stroke-opacity="0.46" stroke-width="0.3"><path d="
M 224.00 510.00 
C 242.53 511.67 264.40 511.66 283.00 510.00
C 263.94 508.31 243.09 508.37 224.00 510.00 Z"/>
</g>
<g fill="None" fill-opacity="0.0" stroke="#FFFFFF" stroke-opacity="0.45" stroke-width="0.3"><path d="
M 295.00 510.00 
C 313.53 511.67 335.40 511.66 354.00 510.00
C 334.90 508.34 314.10 508.34 295.00 510.00 Z"/>
</g>
<g fill="None" fill-opacity="0.0" stroke="#B6B6B6" stroke-opacity="0.25" stroke-width="0.3"><path d="
M 213.00 518.00 
C 214.46 516.47 212.91 514.68 211.00 515.00
C 209.13 516.26 212.05 519.64 213.00 518.00 Z"/>
</g>
<g fill="None" fill-opacity="0.0" stroke="#CFCFCF" stroke-opacity="0.43" stroke-width="0.3"><path d="
M 357.00 553.00 
C 357.31 555.08 360.84 551.29 359.00 551.00
C 357.42 550.74 355.18 551.28 357.00 553.00 Z"/>
</g>
<g fill="None" fill-opacity="0.0" stroke="#D5D5D5" stroke-opacity="0.27" stroke-width="0.3"><path d="
M 264.00 596.00 
C 261.92 596.31 265.71 599.84 266.00 598.00
C 267.63 596.45 265.55 594.24 264.00 596.00 Z"/>
</g>
<g fill="#000000" fill-opacity="0.00" stroke="None"><path d="
M 0.00 661.00 
L 578.00 661.00
L 578.00 0.00
L 0.00 0.00
L 0.00 661.00
M 38.00 29.00 
C 39.55 27.24 41.63 29.45 40.00 31.00
C 43.21 33.63 45.85 40.79 51.00 40.00
C 50.37 43.67 56.14 49.61 60.00 49.00
C 58.43 55.36 68.11 56.58 69.32 60.68 C 74.36 63.32 74.46 70.69 82.00 71.00
C 81.47 74.50 87.09 80.37 91.00 80.00
C 92.58 88.17 104.92 95.22 110.77 103.23 C 117.48 111.38 130.04 116.98 131.00 128.00
C 89.67 128.00 48.33 128.00 7.00 128.00
C 7.00 87.00 7.00 46.00 7.00 5.00
C 22.91 3.21 28.03 23.98 38.00 29.00
M 467.00 102.00 
C 466.52 99.32 468.77 101.39 470.00 100.00
C 480.87 88.22 488.68 80.22 498.00 71.00
C 497.75 68.60 500.66 69.98 502.00 68.00
C 509.28 57.61 520.27 51.14 528.11 40.11 C 534.63 38.70 536.33 27.40 543.00 28.00
C 549.94 19.23 556.99 3.27 571.00 5.00
C 571.00 46.00 571.00 87.00 571.00 128.00
C 529.67 128.00 488.33 128.00 447.00 128.00
C 447.06 116.45 461.43 111.23 467.00 102.00
M 283.00 510.00 
C 264.40 511.66 242.53 511.67 224.00 510.00
C 188.53 474.01 152.14 437.99 117.00 400.00
C 80.50 399.33 42.68 401.33 7.00 399.00
C 7.00 312.00 7.00 225.00 7.00 138.00
C 99.00 138.00 191.00 138.00 283.00 138.00
C 283.00 262.00 283.00 386.00 283.00 510.00
M 571.00 399.00 
C 535.24 401.33 497.52 399.33 461.00 400.00
C 452.98 409.03 444.59 419.01 435.00 427.00
C 436.76 428.55 434.55 430.63 433.00 429.00
C 431.58 431.76 428.35 433.27 427.00 436.00
C 427.32 437.91 425.53 439.46 424.00 438.00
C 422.58 440.76 419.35 442.27 418.00 445.00
C 418.32 446.91 416.53 448.46 415.00 447.00
C 395.83 468.91 374.20 488.46 354.00 510.00
C 335.40 511.66 313.53 511.67 295.00 510.00
C 295.00 386.00 295.00 262.00 295.00 138.00
C 387.00 138.00 479.00 138.00 571.00 138.00
C 571.00 225.00 571.00 312.00 571.00 399.00
M 127.00 431.00 
C 128.55 429.24 130.63 431.45 129.00 433.00
C 131.62 434.89 134.24 437.35 136.00 440.00
C 137.55 438.24 139.63 440.45 138.00 442.00
C 150.16 452.72 161.14 464.93 171.00 476.00
C 172.55 474.24 174.63 476.45 173.00 478.00
C 185.89 489.84 197.87 503.81 211.00 515.00
C 212.91 514.68 214.46 516.47 213.00 518.00
C 220.78 525.41 210.70 543.91 220.23 551.77 C 234.44 566.94 249.78 581.09 264.00 596.00
C 265.55 594.24 267.63 596.45 266.00 598.00
C 270.54 602.45 275.53 607.70 283.00 607.00
C 283.00 622.67 283.00 638.33 283.00 654.00
C 252.27 632.59 224.87 607.18 194.70 585.30 C 136.26 539.27 77.81 495.30 20.75 450.25 C 5.34 444.14 5.94 426.34 7.00 411.00
C 38.00 411.00 69.00 411.00 100.00 411.00 C 112.34 409.62 118.62 424.07 127.00 431.00
M 357.00 553.00 
C 355.18 551.28 357.42 550.74 359.00 551.00
C 366.60 540.06 355.42 520.58 370.25 512.25 C 405.03 477.26 437.68 444.34 469.00 411.00
C 503.00 411.00 537.00 411.00 571.00 411.00
C 571.85 426.38 573.09 443.55 557.25 450.25 C 498.64 495.70 437.86 542.73 377.25 589.25 C 366.71 597.03 358.98 606.46 347.00 611.00
C 346.34 616.51 336.36 620.76 331.30 625.30 C 318.42 636.08 308.18 646.04 295.00 654.00
C 295.00 638.33 295.00 622.67 295.00 607.00
C 307.62 607.53 316.01 591.31 326.75 582.75 C 336.89 572.93 346.54 562.30 357.00 553.00 Z"/>
</g>
<g fill="#FFFFFF" fill-opacity="0.97" stroke="None"><path d="
M 40.00 31.00 
C 39.71 32.84 35.92 29.31 38.00 29.00
C 28.03 23.98 22.91 3.21 7.00 5.00
C 7.00 46.00 7.00 87.00 7.00 128.00
C 48.33 128.00 89.67 128.00 131.00 128.00
C 130.04 116.98 117.48 111.38 110.77 103.23 C 104.92 95.22 92.58 88.17 91.00 80.00
C 87.09 80.37 81.47 74.50 82.00 71.00
C 74.46 70.69 74.36 63.32 69.32 60.68 C 68.11 56.58 58.43 55.36 60.00 49.00
C 56.14 49.61 50.37 43.67 51.00 40.00
C 45.85 40.79 43.21 33.63 40.00 31.00 Z"/>
</g>
<g fill="#FFFFFF" fill-opacity="0.97" stroke="None"><path d="
M 502.00 68.00 
C 502.11 69.95 499.88 72.77 498.00 71.00
C 488.68 80.22 480.87 88.22 470.00 100.00
C 471.64 100.95 468.26 103.87 467.00 102.00
C 461.43 111.23 447.06 116.45 447.00 128.00
C 488.33 128.00 529.67 128.00 571.00 128.00
C 571.00 87.00 571.00 46.00 571.00 5.00
C 556.99 3.27 549.94 19.23 543.00 28.00
C 536.33 27.40 534.63 38.70 528.11 40.11 C 520.27 51.14 509.28 57.61 502.00 68.00 Z"/>
</g>
<g fill="#D5D5D5" fill-opacity="0.27" stroke="None"><path d="
M 38.00 29.00 
C 35.92 29.31 39.71 32.84 40.00 31.00
C 41.63 29.45 39.55 27.24 38.00 29.00 Z"/>
</g>
<g fill="#D5D5D5" fill-opacity="0.31" stroke="None"><path d="
M 498.00 71.00 
C 499.88 72.77 502.11 69.95 502.00 68.00
C 500.66 69.98 497.75 68.60 498.00 71.00 Z"/>
</g>
<g fill="#CFCFCF" fill-opacity="0.35" stroke="None"><path d="
M 467.00 102.00 
C 468.26 103.87 471.64 100.95 470.00 100.00
C 468.77 101.39 466.52 99.32 467.00 102.00 Z"/>
</g>
<g fill="#FFFFFF" fill-opacity="0.99" stroke="None"><path d="
M 7.00 399.00 
C 34.83 396.69 63.75 398.65 92.00 398.00 C 99.50 399.18 113.40 395.54 117.00 400.00
C 152.14 437.99 188.53 474.01 224.00 510.00
C 243.09 508.37 263.94 508.31 283.00 510.00
C 283.00 386.00 283.00 262.00 283.00 138.00
C 191.00 138.00 99.00 138.00 7.00 138.00
C 7.00 225.00 7.00 312.00 7.00 399.00
M 204.00 281.00 
C 204.00 322.67 204.00 364.33 204.00 406.00
C 180.64 390.87 160.59 368.04 140.70 348.30 C 134.21 341.71 123.58 334.52 122.00 327.00
C 114.34 326.72 110.50 315.20 103.92 312.08 C 92.85 305.91 98.21 291.79 97.00 281.00
C 132.67 281.00 168.33 281.00 204.00 281.00 Z"/>
</g>
<g fill="#FFFFFF" fill-opacity="0.99" stroke="None"><path d="
M 295.00 510.00 
C 314.10 508.34 334.90 508.34 354.00 510.00
C 374.20 488.46 395.83 468.91 415.00 447.00
C 413.36 446.05 416.74 443.13 418.00 445.00
C 419.35 442.27 422.58 440.76 424.00 438.00
C 422.36 437.05 425.74 434.13 427.00 436.00
C 428.35 433.27 431.58 431.76 433.00 429.00
C 431.16 428.71 434.69 424.92 435.00 427.00
C 444.59 419.01 452.98 409.03 461.00 400.00
C 469.75 395.38 484.83 399.30 496.00 398.00 C 520.92 398.65 546.50 396.69 571.00 399.00
C 571.00 312.00 571.00 225.00 571.00 138.00
C 479.00 138.00 387.00 138.00 295.00 138.00
C 295.00 262.00 295.00 386.00 295.00 510.00
M 448.00 338.00 
C 449.64 338.95 446.26 341.87 445.00 340.00
C 440.25 344.61 434.73 353.73 429.00 354.00
C 428.14 360.47 420.07 363.50 417.00 369.00
C 418.64 369.95 415.26 372.87 414.00 371.00
C 400.09 383.48 388.82 398.65 373.00 406.00
C 373.00 364.33 373.00 322.67 373.00 281.00
C 409.00 281.00 445.00 281.00 481.00 281.00
C 481.00 289.33 481.00 297.67 481.00 306.00
C 475.71 306.55 474.02 316.03 469.00 314.00
C 464.02 325.14 453.88 328.27 448.00 338.00 Z"/>
</g>
<g fill="#000000" fill-opacity="0.00" stroke="None"><path d="
M 204.00 281.00 
C 168.33 281.00 132.67 281.00 97.00 281.00
C 98.21 291.79 92.85 305.91 103.92 312.08 C 110.50 315.20 114.34 326.72 122.00 327.00
C 123.58 334.52 134.21 341.71 140.70 348.30 C 160.59 368.04 180.64 390.87 204.00 406.00
C 204.00 364.33 204.00 322.67 204.00 281.00 Z"/>
</g>
<g fill="#000000" fill-opacity="0.00" stroke="None"><path d="
M 414.00 371.00 
C 413.52 368.32 415.77 370.39 417.00 369.00
C 420.07 363.50 428.14 360.47 429.00 354.00
C 434.73 353.73 440.25 344.61 445.00 340.00
C 444.52 337.32 446.77 339.39 448.00 338.00
C 453.88 328.27 464.02 325.14 469.00 314.00
C 474.02 316.03 475.71 306.55 481.00 306.00
C 481.00 297.67 481.00 289.33 481.00 281.00
C 445.00 281.00 409.00 281.00 373.00 281.00
C 373.00 322.67 373.00 364.33 373.00 406.00
C 388.82 398.65 400.09 383.48 414.00 371.00 Z"/>
</g>
<g fill="#CFCFCF" fill-opacity="0.34" stroke="None"><path d="
M 445.00 340.00 
C 446.26 341.87 449.64 338.95 448.00 338.00
C 446.77 339.39 444.52 337.32 445.00 340.00 Z"/>
</g>
<g fill="#CFCFCF" fill-opacity="0.35" stroke="None"><path d="
M 414.00 371.00 
C 415.26 372.87 418.64 369.95 417.00 369.00
C 415.77 370.39 413.52 368.32 414.00 371.00 Z"/>
</g>
<g fill="#FFFFFF" fill-opacity="0.49" stroke="None"><path d="
M 7.00 399.00 
C 42.68 401.33 80.50 399.33 117.00 400.00
C 113.40 395.54 99.50 399.18 92.00 398.00 C 63.75 398.65 34.83 396.69 7.00 399.00 Z"/>
</g>
<g fill="#FFFFFF" fill-opacity="0.49" stroke="None"><path d="
M 461.00 400.00 
C 497.52 399.33 535.24 401.33 571.00 399.00
C 546.50 396.69 520.92 398.65 496.00 398.00 C 484.83 399.30 469.75 395.38 461.00 400.00 Z"/>
</g>
<g fill="#FFFFFF" fill-opacity="0.97" stroke="None"><path d="
M 266.00 598.00 
C 265.71 599.84 261.92 596.31 264.00 596.00
C 249.78 581.09 234.44 566.94 220.23 551.77 C 210.70 543.91 220.78 525.41 213.00 518.00
C 212.05 519.64 209.13 516.26 211.00 515.00
C 197.87 503.81 185.89 489.84 173.00 478.00
C 172.71 479.84 168.92 476.31 171.00 476.00
C 161.14 464.93 150.16 452.72 138.00 442.00
C 137.71 443.84 133.92 440.31 136.00 440.00
C 134.24 437.35 131.62 434.89 129.00 433.00
C 128.71 434.84 124.92 431.31 127.00 431.00
C 118.62 424.07 112.34 409.62 100.00 411.00 C 69.00 411.00 38.00 411.00 7.00 411.00
C 5.94 426.34 5.34 444.14 20.75 450.25 C 77.81 495.30 136.26 539.27 194.70 585.30 C 224.87 607.18 252.27 632.59 283.00 654.00
C 283.00 638.33 283.00 622.67 283.00 607.00
C 275.53 607.70 270.54 602.45 266.00 598.00 Z"/>
</g>
<g fill="#FFFFFF" fill-opacity="0.97" stroke="None"><path d="
M 359.00 551.00 
C 360.84 551.29 357.31 555.08 357.00 553.00
C 346.54 562.30 336.89 572.93 326.75 582.75 C 316.01 591.31 307.62 607.53 295.00 607.00
C 295.00 622.67 295.00 638.33 295.00 654.00
C 308.18 646.04 318.42 636.08 331.30 625.30 C 336.36 620.76 346.34 616.51 347.00 611.00
C 358.98 606.46 366.71 597.03 377.25 589.25 C 437.86 542.73 498.64 495.70 557.25 450.25 C 573.09 443.55 571.85 426.38 571.00 411.00
C 537.00 411.00 503.00 411.00 469.00 411.00
C 437.68 444.34 405.03 477.26 370.25 512.25 C 355.42 520.58 366.60 540.06 359.00 551.00 Z"/>
</g>
<g fill="#D5D5D5" fill-opacity="0.35" stroke="None"><path d="
M 433.00 429.00 
C 434.55 430.63 436.76 428.55 435.00 427.00
C 434.69 424.92 431.16 428.71 433.00 429.00 Z"/>
</g>
<g fill="#D5D5D5" fill-opacity="0.36" stroke="None"><path d="
M 127.00 431.00 
C 124.92 431.31 128.71 434.84 129.00 433.00
C 130.63 431.45 128.55 429.24 127.00 431.00 Z"/>
</g>
<g fill="#B6B6B6" fill-opacity="0.31" stroke="None"><path d="
M 424.00 438.00 
C 425.53 439.46 427.32 437.91 427.00 436.00
C 425.74 434.13 422.36 437.05 424.00 438.00 Z"/>
</g>
<g fill="#D5D5D5" fill-opacity="0.37" stroke="None"><path d="
M 136.00 440.00 
C 133.92 440.31 137.71 443.84 138.00 442.00
C 139.63 440.45 137.55 438.24 136.00 440.00 Z"/>
</g>
<g fill="#B6B6B6" fill-opacity="0.31" stroke="None"><path d="
M 415.00 447.00 
C 416.53 448.46 418.32 446.91 418.00 445.00
C 416.74 443.13 413.36 446.05 415.00 447.00 Z"/>
</g>
<g fill="#D5D5D5" fill-opacity="0.27" stroke="None"><path d="
M 171.00 476.00 
C 168.92 476.31 172.71 479.84 173.00 478.00
C 174.63 476.45 172.55 474.24 171.00 476.00 Z"/>
</g>
<g fill="#FFFFFF" fill-opacity="0.46" stroke="None"><path d="
M 224.00 510.00 
C 242.53 511.67 264.40 511.66 283.00 510.00
C 263.94 508.31 243.09 508.37 224.00 510.00 Z"/>
</g>
<g fill="#FFFFFF" fill-opacity="0.45" stroke="None"><path d="
M 295.00 510.00 
C 313.53 511.67 335.40 511.66 354.00 510.00
C 334.90 508.34 314.10 508.34 295.00 510.00 Z"/>
</g>
<g fill="#B6B6B6" fill-opacity="0.25" stroke="None"><path d="
M 213.00 518.00 
C 214.46 516.47 212.91 514.68 211.00 515.00
C 209.13 516.26 212.05 519.64 213.00 518.00 Z"/>
</g>
<g fill="#CFCFCF" fill-opacity="0.43" stroke="None"><path d="
M 357.00 553.00 
C 357.31 555.08 360.84 551.29 359.00 551.00
C 357.42 550.74 355.18 551.28 357.00 553.00 Z"/>
</g>
<g fill="#D5D5D5" fill-opacity="0.27" stroke="None"><path d="
M 264.00 596.00 
C 261.92 596.31 265.71 599.84 266.00 598.00
C 267.63 596.45 265.55 594.24 264.00 596.00 Z"/>
</g>
</svg>